<?xml version="1.0" encoding="UTF-8" standalone="no"?>
<svg
   version="1.1"
   width="1678px"
   height="428px"
   style="shape-rendering:geometricPrecision; text-rendering:geometricPrecision; image-rendering:optimizeQuality; fill-rule:evenodd; clip-rule:evenodd"
   id="svg774"
   sodipodi:docname="Screenshot 2023-08-29 at 12.35.58 AM.svg"
   inkscape:version="1.2.2 (b0a84865, 2022-12-01)"
   xmlns:inkscape="http://www.inkscape.org/namespaces/inkscape"
   xmlns:sodipodi="http://sodipodi.sourceforge.net/DTD/sodipodi-0.dtd"
   xmlns="http://www.w3.org/2000/svg"
   xmlns:svg="http://www.w3.org/2000/svg">
  <defs
     id="defs778" />
  <sodipodi:namedview
     id="namedview776"
     pagecolor="#ffffff"
     bordercolor="#cccccc"
     borderopacity="1"
     inkscape:showpageshadow="0"
     inkscape:pageopacity="1"
     inkscape:pagecheckerboard="0"
     inkscape:deskcolor="#d1d1d1"
     showgrid="false"
     inkscape:zoom="0.55325841"
     inkscape:cx="732.02683"
     inkscape:cy="270.21731"
     inkscape:window-width="1440"
     inkscape:window-height="847"
     inkscape:window-x="0"
     inkscape:window-y="25"
     inkscape:window-maximized="1"
     inkscape:current-layer="svg774" />
  <g
     id="g188">
    <path
       style="opacity:1"
       fill="#3664aa"
       d="M 159.5,103.5 C 164.305,104.487 169.305,104.821 174.5,104.5C 174.5,96.5 174.5,88.5 174.5,80.5C 176.167,80.5 177.833,80.5 179.5,80.5C 179.5,88.1667 179.5,95.8333 179.5,103.5C 182.962,104.482 186.629,104.815 190.5,104.5C 190.5,105.833 190.5,107.167 190.5,108.5C 185.968,108.182 181.634,108.515 177.5,109.5C 156.5,109.5 135.5,109.5 114.5,109.5C 127.656,108.504 140.99,108.171 154.5,108.5C 154.768,106.901 154.434,105.568 153.5,104.5C 153.5,104.167 153.5,103.833 153.5,103.5C 153.5,95.8333 153.5,88.1667 153.5,80.5C 155.5,80.5 157.5,80.5 159.5,80.5C 159.5,88.1667 159.5,95.8333 159.5,103.5 Z"
       id="path186" />
  </g>
  <g
     id="g192">
    <path
       style="opacity:1"
       fill="#3e73b6"
       d="M 194.5,80.5 C 196.5,80.5 198.5,80.5 200.5,80.5C 200.5,88.1667 200.5,95.8333 200.5,103.5C 202.265,104.461 204.265,104.795 206.5,104.5C 206.5,105.833 206.5,107.167 206.5,108.5C 201.167,108.5 195.833,108.5 190.5,108.5C 190.5,107.167 190.5,105.833 190.5,104.5C 186.629,104.815 182.962,104.482 179.5,103.5C 184.5,103.5 189.5,103.5 194.5,103.5C 194.5,95.8333 194.5,88.1667 194.5,80.5 Z"
       id="path190" />
  </g>
  <g
     id="g196">
    <path
       style="opacity:1"
       fill="#cad9ea"
       d="M 179.5,80.5 C 180.492,87.6476 180.825,94.9809 180.5,102.5C 184.833,102.5 189.167,102.5 193.5,102.5C 193.175,94.9809 193.508,87.6476 194.5,80.5C 194.5,88.1667 194.5,95.8333 194.5,103.5C 189.5,103.5 184.5,103.5 179.5,103.5C 179.5,95.8333 179.5,88.1667 179.5,80.5 Z"
       id="path194" />
  </g>
  <g
     id="g200">
    <path
       style="opacity:1"
       fill="#8ca2c9"
       d="M 138.5,80.5 C 139.492,87.9818 139.825,95.6484 139.5,103.5C 144.167,103.5 148.833,103.5 153.5,103.5C 153.5,103.833 153.5,104.167 153.5,104.5C 148.5,104.5 143.5,104.5 138.5,104.5C 138.5,96.5 138.5,88.5 138.5,80.5 Z"
       id="path198" />
  </g>
  <g
     id="g204">
    <path
       style="opacity:1"
       fill="#8ca9d0"
       d="M 174.5,80.5 C 174.5,88.5 174.5,96.5 174.5,104.5C 169.305,104.821 164.305,104.487 159.5,103.5C 164.167,103.5 168.833,103.5 173.5,103.5C 173.175,95.6484 173.508,87.9818 174.5,80.5 Z"
       id="path202" />
  </g>
  <g
     id="g208">
    <path
       style="opacity:1"
       fill="#4480c1"
       d="M 220.5,80.5 C 220.5,88.1667 220.5,95.8333 220.5,103.5C 225.5,103.5 230.5,103.5 235.5,103.5C 235.5,95.8333 235.5,88.1667 235.5,80.5C 237.5,80.5 239.5,80.5 241.5,80.5C 241.5,88.1667 241.5,95.8333 241.5,103.5C 244.962,104.482 248.629,104.815 252.5,104.5C 252.5,105.833 252.5,107.167 252.5,108.5C 242.985,108.173 233.652,108.506 224.5,109.5C 208.833,109.5 193.167,109.5 177.5,109.5C 181.634,108.515 185.968,108.182 190.5,108.5C 195.833,108.5 201.167,108.5 206.5,108.5C 206.5,107.167 206.5,105.833 206.5,104.5C 204.265,104.795 202.265,104.461 200.5,103.5C 205.167,103.5 209.833,103.5 214.5,103.5C 214.5,95.8333 214.5,88.1667 214.5,80.5C 216.5,80.5 218.5,80.5 220.5,80.5 Z"
       id="path206" />
  </g>
  <g
     id="g212">
    <path
       style="opacity:1"
       fill="#c7ddee"
       d="M 220.5,80.5 C 221.492,87.6476 221.825,94.9809 221.5,102.5C 225.833,102.5 230.167,102.5 234.5,102.5C 234.175,94.9809 234.508,87.6476 235.5,80.5C 235.5,88.1667 235.5,95.8333 235.5,103.5C 230.5,103.5 225.5,103.5 220.5,103.5C 220.5,95.8333 220.5,88.1667 220.5,80.5 Z"
       id="path210" />
  </g>
  <g
     id="g216">
    <path
       style="opacity:1"
       fill="#4a92d0"
       d="M 261.5,80.5 C 261.5,88.1667 261.5,95.8333 261.5,103.5C 266.5,103.5 271.5,103.5 276.5,103.5C 276.5,95.8333 276.5,88.1667 276.5,80.5C 278.5,80.5 280.5,80.5 282.5,80.5C 282.5,88.1667 282.5,95.8333 282.5,103.5C 287.975,104.489 293.642,104.822 299.5,104.5C 299.5,105.833 299.5,107.167 299.5,108.5C 284.99,108.171 270.657,108.504 256.5,109.5C 245.833,109.5 235.167,109.5 224.5,109.5C 233.652,108.506 242.985,108.173 252.5,108.5C 252.5,107.167 252.5,105.833 252.5,104.5C 248.629,104.815 244.962,104.482 241.5,103.5C 246.167,103.5 250.833,103.5 255.5,103.5C 255.5,95.8333 255.5,88.1667 255.5,80.5C 257.5,80.5 259.5,80.5 261.5,80.5 Z"
       id="path214" />
  </g>
  <g
     id="g220">
    <path
       style="opacity:1"
       fill="#d3e8f4"
       d="M 261.5,80.5 C 262.492,87.6476 262.825,94.9809 262.5,102.5C 266.833,102.5 271.167,102.5 275.5,102.5C 275.175,94.9809 275.508,87.6476 276.5,80.5C 276.5,88.1667 276.5,95.8333 276.5,103.5C 271.5,103.5 266.5,103.5 261.5,103.5C 261.5,95.8333 261.5,88.1667 261.5,80.5 Z"
       id="path218" />
  </g>
  <g
     id="g224">
    <path
       style="opacity:1"
       fill="#54a7e2"
       d="M 282.5,103.5 C 290.382,102.861 298.049,103.694 305.5,106C 310.243,108.565 313.243,112.398 314.5,117.5C 314.5,123.833 314.5,130.167 314.5,136.5C 321.648,137.492 328.981,137.825 336.5,137.5C 336.5,138.833 336.5,140.167 336.5,141.5C 328.981,141.175 321.648,141.508 314.5,142.5C 314.5,147.5 314.5,152.5 314.5,157.5C 322.5,157.5 330.5,157.5 338.5,157.5C 340.69,158.748 341.023,160.414 339.5,162.5C 331.167,162.5 322.833,162.5 314.5,162.5C 314.5,167.5 314.5,172.5 314.5,177.5C 322.5,177.5 330.5,177.5 338.5,177.5C 340.377,178.659 340.877,180.326 340,182.5C 339.329,183.252 338.496,183.586 337.5,183.5C 329.833,183.5 322.167,183.5 314.5,183.5C 314.5,188.167 314.5,192.833 314.5,197.5C 322.323,198.329 330.323,198.829 338.5,199C 339.337,200.011 339.67,201.178 339.5,202.5C 339.5,203.167 339.167,203.5 338.5,203.5C 330.5,203.5 322.5,203.5 314.5,203.5C 314.5,208.5 314.5,213.5 314.5,218.5C 321.648,219.492 328.981,219.825 336.5,219.5C 336.5,220.833 336.5,222.167 336.5,223.5C 329.313,223.175 322.313,223.509 315.5,224.5C 314.514,228.97 314.181,233.637 314.5,238.5C 322.323,239.329 330.323,239.829 338.5,240C 339.337,241.011 339.67,242.178 339.5,243.5C 338.833,243.5 338.5,243.833 338.5,244.5C 330.5,244.5 322.5,244.5 314.5,244.5C 314.5,249.5 314.5,254.5 314.5,259.5C 322.5,259.5 330.5,259.5 338.5,259.5C 341.167,261.167 341.167,262.833 338.5,264.5C 330.5,264.5 322.5,264.5 314.5,264.5C 314.5,269.5 314.5,274.5 314.5,279.5C 322.167,279.5 329.833,279.5 337.5,279.5C 339.484,279.484 340.484,280.484 340.5,282.5C 340.182,283.647 339.516,284.481 338.5,285C 330.507,285.5 322.507,285.666 314.5,285.5C 314.666,292.508 314.5,299.508 314,306.5C 312.319,310.679 309.485,313.679 305.5,315.5C 305.762,314.022 305.429,312.689 304.5,311.5C 301.145,313.404 297.812,313.737 294.5,312.5C 300.49,312.901 304.99,310.568 308,305.5C 308.667,242.5 308.667,179.5 308,116.5C 306.332,112.835 303.499,110.668 299.5,110C 285.171,109.5 270.837,109.333 256.5,109.5C 270.657,108.504 284.99,108.171 299.5,108.5C 299.5,107.167 299.5,105.833 299.5,104.5C 293.642,104.822 287.975,104.489 282.5,103.5 Z"
       id="path222" />
  </g>
  <g
     id="g228">
    <path
       style="opacity:1"
       fill="#fcfdfe"
       d="M 114.5,109.5 C 135.5,109.5 156.5,109.5 177.5,109.5C 193.167,109.5 208.833,109.5 224.5,109.5C 235.167,109.5 245.833,109.5 256.5,109.5C 270.837,109.333 285.171,109.5 299.5,110C 303.499,110.668 306.332,112.835 308,116.5C 308.667,179.5 308.667,242.5 308,305.5C 304.99,310.568 300.49,312.901 294.5,312.5C 274.833,312.5 255.167,312.5 235.5,312.5C 225.167,312.5 214.833,312.5 204.5,312.5C 194.167,312.5 183.833,312.5 173.5,312.5C 162.833,312.5 152.167,312.5 141.5,312.5C 132.494,312.666 123.494,312.5 114.5,312C 110.667,310.833 108.167,308.333 107,304.5C 106.333,241.833 106.333,179.167 107,116.5C 108.767,113.228 111.267,110.895 114.5,109.5 Z"
       id="path226" />
  </g>
  <g
     id="g232">
    <path
       style="opacity:1"
       fill="#374690"
       d="M 103.5,111.5 C 104.833,177.833 104.833,244.167 103.5,310.5C 102.073,308.852 101.24,306.852 101,304.5C 100.5,298.175 100.334,291.842 100.5,285.5C 92.4931,285.666 84.4931,285.5 76.5,285C 74.4732,283.604 74.1398,281.938 75.5,280C 83.4931,279.5 91.4931,279.334 99.5,279.5C 100.487,274.695 100.821,269.695 100.5,264.5C 92.1667,264.5 83.8333,264.5 75.5,264.5C 73.9766,262.414 74.31,260.748 76.5,259.5C 84.5,259.5 92.5,259.5 100.5,259.5C 100.5,254.5 100.5,249.5 100.5,244.5C 92.1667,244.5 83.8333,244.5 75.5,244.5C 74.2801,242.716 74.2801,241.05 75.5,239.5C 83.8333,239.5 92.1667,239.5 100.5,239.5C 100.5,234.167 100.5,228.833 100.5,223.5C 92.5,223.5 84.5,223.5 76.5,223.5C 73.8333,221.833 73.8333,220.167 76.5,218.5C 84.5,218.5 92.5,218.5 100.5,218.5C 100.5,213.5 100.5,208.5 100.5,203.5C 92.5,203.5 84.5,203.5 76.5,203.5C 74.324,202.287 73.9907,200.62 75.5,198.5C 83.4723,197.502 91.4723,197.169 99.5,197.5C 100.486,193.03 100.819,188.363 100.5,183.5C 92.5,183.5 84.5,183.5 76.5,183.5C 74.0062,181.406 74.0062,179.406 76.5,177.5C 84.5,177.5 92.5,177.5 100.5,177.5C 100.5,172.5 100.5,167.5 100.5,162.5C 92.5,162.5 84.5,162.5 76.5,162.5C 74.31,161.252 73.9766,159.586 75.5,157.5C 83.8333,157.5 92.1667,157.5 100.5,157.5C 100.821,152.305 100.487,147.305 99.5,142.5C 91.4931,142.666 83.4931,142.5 75.5,142C 74.2613,139.882 74.5946,138.049 76.5,136.5C 84.5,136.5 92.5,136.5 100.5,136.5C 100.5,131.167 100.5,125.833 100.5,120.5C 100.132,116.956 101.132,113.956 103.5,111.5 Z"
       id="path230" />
  </g>
  <g
     id="g236">
    <path
       style="opacity:1"
       fill="#425a9f"
       d="M 138.5,80.5 C 138.5,88.5 138.5,96.5 138.5,104.5C 143.5,104.5 148.5,104.5 153.5,104.5C 154.434,105.568 154.768,106.901 154.5,108.5C 140.99,108.171 127.656,108.504 114.5,109.5C 111.267,110.895 108.767,113.228 107,116.5C 106.333,179.167 106.333,241.833 107,304.5C 108.167,308.333 110.667,310.833 114.5,312C 123.494,312.5 132.494,312.666 141.5,312.5C 145.634,313.485 149.968,313.818 154.5,313.5C 154.827,322.682 154.493,331.682 153.5,340.5C 153.5,332.833 153.5,325.167 153.5,317.5C 148.637,317.181 143.97,317.514 139.5,318.5C 138.671,326.323 138.171,334.323 138,342.5C 136.085,343.916 134.585,343.582 133.5,341.5C 133.5,333.5 133.5,325.5 133.5,317.5C 126.833,317.5 120.167,317.5 113.5,317.5C 109.108,316.641 105.775,314.307 103.5,310.5C 104.833,244.167 104.833,177.833 103.5,111.5C 105.336,108.832 107.669,106.666 110.5,105C 117.761,103.652 125.094,103.152 132.5,103.5C 132.5,95.8333 132.5,88.1667 132.5,80.5C 134.5,80.5 136.5,80.5 138.5,80.5 Z"
       id="path234" />
  </g>
  <g
     id="g240">
    <path
       style="opacity:1"
       fill="#ced2e3"
       d="M 100.5,120.5 C 100.5,125.833 100.5,131.167 100.5,136.5C 92.5,136.5 84.5,136.5 76.5,136.5C 83.9818,135.508 91.6484,135.175 99.5,135.5C 99.1795,130.305 99.5128,125.305 100.5,120.5 Z"
       id="path238" />
  </g>
  <g
     id="g244">
    <path
       style="opacity:1"
       fill="#cce9f8"
       d="M 314.5,117.5 C 315.49,123.31 315.823,129.31 315.5,135.5C 323.352,135.175 331.018,135.508 338.5,136.5C 330.5,136.5 322.5,136.5 314.5,136.5C 314.5,130.167 314.5,123.833 314.5,117.5 Z"
       id="path242" />
  </g>
  <g
     id="g248">
    <path
       style="opacity:1"
       fill="#435fa3"
       d="M 134.5,137.5 C 135.167,137.5 135.833,137.5 136.5,137.5C 136.5,186.5 136.5,235.5 136.5,284.5C 135.833,284.5 135.167,284.5 134.5,284.5C 133.883,284.389 133.383,284.056 133,283.5C 132.333,235.167 132.333,186.833 133,138.5C 133.383,137.944 133.883,137.611 134.5,137.5 Z"
       id="path246" />
  </g>
  <g
     id="g252">
    <path
       style="opacity:1"
       fill="#335aa2"
       d="M 136.5,137.5 C 153.167,137.5 169.833,137.5 186.5,137.5C 186.5,138.833 186.5,140.167 186.5,141.5C 170.325,141.17 154.325,141.504 138.5,142.5C 138.5,188.167 138.5,233.833 138.5,279.5C 154.325,280.496 170.325,280.83 186.5,280.5C 186.5,281.833 186.5,283.167 186.5,284.5C 169.833,284.5 153.167,284.5 136.5,284.5C 136.5,235.5 136.5,186.5 136.5,137.5 Z"
       id="path250" />
  </g>
  <g
     id="g256">
    <path
       style="opacity:1"
       fill="#3670b6"
       d="M 186.5,137.5 C 197.167,137.5 207.833,137.5 218.5,137.5C 218.5,138.833 218.5,140.167 218.5,141.5C 207.833,141.5 197.167,141.5 186.5,141.5C 186.5,140.167 186.5,138.833 186.5,137.5 Z"
       id="path254" />
  </g>
  <g
     id="g260">
    <path
       style="opacity:1"
       fill="#5195d1"
       d="M 134.5,137.5 C 182.998,136.335 231.665,136.168 280.5,137C 281,137.5 281.5,138 282,138.5C 282.667,186.833 282.667,235.167 282,283.5C 281.5,284 281,284.5 280.5,285C 256.502,285.5 232.502,285.667 208.5,285.5C 217.652,284.506 226.985,284.173 236.5,284.5C 236.5,283.167 236.5,281.833 236.5,280.5C 226.985,280.827 217.652,280.494 208.5,279.5C 231.167,279.5 253.833,279.5 276.5,279.5C 276.5,233.833 276.5,188.167 276.5,142.5C 230.5,142.5 184.5,142.5 138.5,142.5C 154.325,141.504 170.325,141.17 186.5,141.5C 197.167,141.5 207.833,141.5 218.5,141.5C 218.5,140.167 218.5,138.833 218.5,137.5C 207.833,137.5 197.167,137.5 186.5,137.5C 169.833,137.5 153.167,137.5 136.5,137.5C 135.833,137.5 135.167,137.5 134.5,137.5 Z"
       id="path258" />
  </g>
  <g
     id="g264">
    <path
       style="opacity:1"
       fill="#66b9eb"
       d="M 314.5,136.5 C 322.5,136.5 330.5,136.5 338.5,136.5C 340.424,138.09 340.757,139.924 339.5,142C 331.507,142.5 323.507,142.666 315.5,142.5C 315.167,142.5 314.833,142.5 314.5,142.5C 321.648,141.508 328.981,141.175 336.5,141.5C 336.5,140.167 336.5,138.833 336.5,137.5C 328.981,137.825 321.648,137.492 314.5,136.5 Z"
       id="path262" />
  </g>
  <g
     id="g268">
    <path
       style="opacity:1"
       fill="#c7dbec"
       d="M 138.5,142.5 C 184.5,142.5 230.5,142.5 276.5,142.5C 276.5,188.167 276.5,233.833 276.5,279.5C 253.833,279.5 231.167,279.5 208.5,279.5C 185.167,279.5 161.833,279.5 138.5,279.5C 138.5,233.833 138.5,188.167 138.5,142.5 Z"
       id="path266" />
  </g>
  <g
     id="g272">
    <path
       style="opacity:1"
       fill="#fefffe"
       d="M 139.5,143.5 C 184.833,143.5 230.167,143.5 275.5,143.5C 275.5,188.5 275.5,233.5 275.5,278.5C 230.167,278.5 184.833,278.5 139.5,278.5C 139.5,233.5 139.5,188.5 139.5,143.5 Z"
       id="path270" />
  </g>
  <g
     id="g276">
    <path
       style="opacity:1"
       fill="#a8a8a8"
       d="M 1554.5,152.5 C 1565.89,150.412 1576.89,151.745 1587.5,156.5C 1576.76,153.299 1565.76,151.966 1554.5,152.5 Z"
       id="path274" />
  </g>
  <g
     id="g280">
    <path
       style="opacity:1"
       fill="#b7b7b7"
       d="M 476.5,152.5 C 482.653,151.347 488.986,151.18 495.5,152C 496.737,152.232 497.737,152.732 498.5,153.5C 492.203,152.68 485.869,152.347 479.5,152.5C 478.5,152.5 477.5,152.5 476.5,152.5 Z"
       id="path278" />
  </g>
  <g
     id="g284">
    <path
       style="opacity:1"
       fill="#151515"
       d="M 592.5,154.5 C 594.936,155.871 597.603,156.871 600.5,157.5C 614.522,164.188 624.855,174.522 631.5,188.5C 632.256,192.767 633.589,196.767 635.5,200.5C 636.461,202.265 636.795,204.265 636.5,206.5C 636.625,212.203 636.292,217.87 635.5,223.5C 628.948,251.217 611.614,268.05 583.5,274C 550.762,275.977 528.429,261.81 516.5,231.5C 514.415,220.213 514.081,208.879 515.5,197.5C 528.831,161.571 554.497,147.237 592.5,154.5 Z"
       id="path282" />
  </g>
  <g
     id="g288">
    <path
       style="opacity:1"
       fill="#9a9a9a"
       d="M 671.5,154.5 C 665.256,153.542 658.923,153.209 652.5,153.5C 652.5,193.5 652.5,233.5 652.5,273.5C 651.501,233.337 651.168,193.003 651.5,152.5C 658.584,151.874 665.25,152.541 671.5,154.5 Z"
       id="path286" />
  </g>
  <g
     id="g292">
    <path
       style="opacity:1"
       fill="#b6b6b6"
       d="M 795.5,153.5 C 812.328,152.338 829.328,152.172 846.5,153C 847.737,153.232 848.737,153.732 849.5,154.5C 831.861,153.555 814.194,153.222 796.5,153.5C 796.167,153.5 795.833,153.5 795.5,153.5 Z"
       id="path290" />
  </g>
  <g
     id="g296">
    <path
       style="opacity:1"
       fill="#131313"
       d="M 1554.5,152.5 C 1565.76,151.966 1576.76,153.299 1587.5,156.5C 1585.21,162.07 1583.21,167.737 1581.5,173.5C 1578.57,173.435 1575.91,172.768 1573.5,171.5C 1566.68,170.345 1559.68,170.179 1552.5,171C 1550.51,171.374 1548.84,172.207 1547.5,173.5C 1528.4,182.36 1519.56,197.36 1521,218.5C 1524.28,235.779 1534.11,247.613 1550.5,254C 1553.06,255.079 1555.73,255.579 1558.5,255.5C 1563.32,256.65 1568.32,256.816 1573.5,256C 1574.06,255.617 1574.39,255.117 1574.5,254.5C 1575.49,244.013 1575.83,233.346 1575.5,222.5C 1569.36,221.51 1563.02,221.177 1556.5,221.5C 1556.5,215.833 1556.5,210.167 1556.5,204.5C 1568.83,204.5 1581.17,204.5 1593.5,204.5C 1593.83,225.511 1593.5,246.511 1592.5,267.5C 1559.27,281.068 1532.1,273.401 1511,244.5C 1506.47,237.107 1503.97,229.107 1503.5,220.5C 1503.33,214.824 1503.5,209.157 1504,203.5C 1505.28,199.586 1506.12,195.586 1506.5,191.5C 1515.58,169.963 1531.58,156.963 1554.5,152.5 Z"
       id="path294" />
  </g>
  <g
     id="g300">
    <path
       style="opacity:1"
       fill="#4f4f4f"
       d="M 476.5,152.5 C 477.5,152.5 478.5,152.5 479.5,152.5C 475.023,153.862 470.357,154.862 465.5,155.5C 465.611,154.883 465.944,154.383 466.5,154C 469.793,153.174 473.126,152.674 476.5,152.5 Z"
       id="path298" />
  </g>
  <g
     id="g304">
    <path
       style="opacity:1"
       fill="#151515"
       d="M 479.5,152.5 C 485.869,152.347 492.203,152.68 498.5,153.5C 500.302,154.458 502.302,155.125 504.5,155.5C 504.5,161.5 504.5,167.5 504.5,173.5C 503.167,173.5 501.833,173.5 500.5,173.5C 499.609,172.89 498.609,172.557 497.5,172.5C 497.082,171.778 496.416,171.278 495.5,171C 492.518,170.502 489.518,170.335 486.5,170.5C 482.298,170.183 478.298,170.517 474.5,171.5C 471.084,171.528 468.084,172.528 465.5,174.5C 456.833,178.5 450.5,184.833 446.5,193.5C 445.094,193.973 444.427,194.973 444.5,196.5C 444.443,197.609 444.11,198.609 443.5,199.5C 442.732,200.263 442.232,201.263 442,202.5C 441.179,209.346 441.346,216.013 442.5,222.5C 448.125,242.627 461.292,253.96 482,256.5C 488.985,255.87 495.819,254.536 502.5,252.5C 503.816,255.087 504.483,258.087 504.5,261.5C 504.461,264.917 504.127,268.25 503.5,271.5C 469.128,279.548 443.961,267.881 428,236.5C 418.041,207.833 424.541,183.666 447.5,164C 450.059,162.223 452.726,160.723 455.5,159.5C 457.027,159.573 458.027,158.906 458.5,157.5C 458.833,157.5 459.167,157.5 459.5,157.5C 461.153,157.34 462.486,156.674 463.5,155.5C 464.167,155.5 464.833,155.5 465.5,155.5C 470.357,154.862 475.023,153.862 479.5,152.5 Z"
       id="path302" />
  </g>
  <g
     id="g308">
    <path
       style="opacity:1"
       fill="#141414"
       d="M 909.5,236.5 C 911.151,244.159 915.485,249.826 922.5,253.5C 923.635,255.213 925.302,255.88 927.5,255.5C 940.386,257.557 950.052,252.891 956.5,241.5C 957.268,240.737 957.768,239.737 958,238.5C 958.5,210.169 958.667,181.835 958.5,153.5C 964.5,153.5 970.5,153.5 976.5,153.5C 976.667,180.835 976.5,208.169 976,235.5C 975.304,238.478 974.804,241.478 974.5,244.5C 965.445,266.042 949.111,275.875 925.5,274C 905.879,268.884 894.546,256.384 891.5,236.5C 891.5,208.833 891.5,181.167 891.5,153.5C 897.167,153.5 902.833,153.5 908.5,153.5C 908.169,181.338 908.502,209.005 909.5,236.5 Z"
       id="path306" />
  </g>
  <g
     id="g312">
    <path
       style="opacity:1"
       fill="#787878"
       d="M 909.5,236.5 C 908.502,209.005 908.169,181.338 908.5,153.5C 902.833,153.5 897.167,153.5 891.5,153.5C 891.5,181.167 891.5,208.833 891.5,236.5C 890.502,208.672 890.169,180.672 890.5,152.5C 896.833,152.5 903.167,152.5 909.5,152.5C 909.5,180.5 909.5,208.5 909.5,236.5 Z"
       id="path310" />
  </g>
  <g
     id="g316">
    <path
       style="opacity:1"
       fill="#999999"
       d="M 958.5,153.5 C 958.667,181.835 958.5,210.169 958,238.5C 957.768,239.737 957.268,240.737 956.5,241.5C 957.135,212.02 957.802,182.687 958.5,153.5 Z"
       id="path314" />
  </g>
  <g
     id="g320">
    <path
       style="opacity:1"
       fill="#bbbbbb"
       d="M 976.5,153.5 C 977.664,180.997 977.83,208.664 977,236.5C 976.667,238.833 976.333,241.167 976,243.5C 975.617,244.056 975.117,244.389 974.5,244.5C 974.804,241.478 975.304,238.478 976,235.5C 976.5,208.169 976.667,180.835 976.5,153.5 Z"
       id="path318" />
  </g>
  <g
     id="g324">
    <path
       style="opacity:1"
       fill="#3b3b3b"
       d="M 993.5,154.5 C 1016.33,153.502 1039.33,153.169 1062.5,153.5C 1062.5,159.5 1062.5,165.5 1062.5,171.5C 1053.83,171.5 1045.17,171.5 1036.5,171.5C 1044.65,170.507 1052.98,170.174 1061.5,170.5C 1061.5,165.167 1061.5,159.833 1061.5,154.5C 1038.83,154.5 1016.17,154.5 993.5,154.5 Z"
       id="path322" />
  </g>
  <g
     id="g328">
    <path
       style="opacity:1"
       fill="#8c8c8c"
       d="M 592.5,154.5 C 595.716,154.345 598.383,155.345 600.5,157.5C 597.603,156.871 594.936,155.871 592.5,154.5 Z"
       id="path326" />
  </g>
  <g
     id="g332">
    <path
       style="opacity:1"
       fill="#121212"
       d="M 671.5,154.5 C 671.166,157.491 672.166,159.824 674.5,161.5C 674.166,164.491 675.166,166.824 677.5,168.5C 677.166,171.491 678.166,173.824 680.5,175.5C 682.204,178.256 683.537,181.256 684.5,184.5C 684.166,187.491 685.166,189.824 687.5,191.5C 687.166,194.491 688.166,196.824 690.5,198.5C 690.166,201.491 691.166,203.824 693.5,205.5C 695.204,208.256 696.537,211.256 697.5,214.5C 697.166,217.491 698.166,219.824 700.5,221.5C 700.166,224.491 701.166,226.824 703.5,228.5C 703.166,231.491 704.166,233.824 706.5,235.5C 706.166,238.491 707.166,240.824 709.5,242.5C 710.712,245.233 712.045,247.9 713.5,250.5C 727.792,218.92 741.792,187.253 755.5,155.5C 761.744,154.542 768.077,154.209 774.5,154.5C 774.5,193.833 774.5,233.167 774.5,272.5C 768.833,272.5 763.167,272.5 757.5,272.5C 757.833,247.824 757.5,223.158 756.5,198.5C 755.702,198.957 755.369,199.624 755.5,200.5C 749.321,214.843 742.988,229.177 736.5,243.5C 734.935,245.509 733.935,247.843 733.5,250.5C 731.796,253.256 730.463,256.256 729.5,259.5C 727.935,261.509 726.935,263.843 726.5,266.5C 725.069,267.78 724.402,269.447 724.5,271.5C 717.588,272.462 710.588,272.795 703.5,272.5C 702.687,270.739 701.687,269.072 700.5,267.5C 700.065,264.843 699.065,262.509 697.5,260.5C 694.537,252.591 691.204,244.925 687.5,237.5C 687.065,234.843 686.065,232.509 684.5,230.5C 684.065,227.843 683.065,225.509 681.5,223.5C 678.537,215.591 675.204,207.925 671.5,200.5C 671.631,199.624 671.298,198.957 670.5,198.5C 669.5,223.491 669.167,248.491 669.5,273.5C 663.833,273.5 658.167,273.5 652.5,273.5C 652.5,233.5 652.5,193.5 652.5,153.5C 658.923,153.209 665.256,153.542 671.5,154.5 Z"
       id="path330" />
  </g>
  <g
     id="g336">
    <path
       style="opacity:1"
       fill="#575757"
       d="M 757.5,273.5 C 757.5,273.167 757.5,272.833 757.5,272.5C 763.167,272.5 768.833,272.5 774.5,272.5C 774.5,233.167 774.5,193.833 774.5,154.5C 768.077,154.209 761.744,154.542 755.5,155.5C 761.75,153.541 768.416,152.874 775.5,153.5C 775.5,193.5 775.5,233.5 775.5,273.5C 769.5,273.5 763.5,273.5 757.5,273.5 Z"
       id="path334" />
  </g>
  <g
     id="g340">
    <path
       style="opacity:1"
       fill="#131313"
       d="M 796.5,153.5 C 814.194,153.222 831.861,153.555 849.5,154.5C 853.208,155.963 856.874,157.63 860.5,159.5C 862.5,162.167 864.833,164.5 867.5,166.5C 868.401,167.29 869.068,168.29 869.5,169.5C 869.427,171.027 870.094,172.027 871.5,172.5C 871.415,175.649 872.415,178.316 874.5,180.5C 876.371,196.743 870.704,209.41 857.5,218.5C 853.605,219.462 849.939,220.796 846.5,222.5C 835.5,222.5 824.5,222.5 813.5,222.5C 813.5,239.167 813.5,255.833 813.5,272.5C 807.833,272.5 802.167,272.5 796.5,272.5C 796.5,232.833 796.5,193.167 796.5,153.5 Z"
       id="path338" />
  </g>
  <g
     id="g344">
    <path
       style="opacity:1"
       fill="#959595"
       d="M 1062.5,153.5 C 1039.33,153.169 1016.33,153.502 993.5,154.5C 993.5,160.167 993.5,165.833 993.5,171.5C 993.167,171.5 992.833,171.5 992.5,171.5C 992.5,165.167 992.5,158.833 992.5,152.5C 1016.01,152.169 1039.34,152.502 1062.5,153.5 Z"
       id="path342" />
  </g>
  <g
     id="g348">
    <path
       style="opacity:1"
       fill="#111111"
       d="M 993.5,154.5 C 1016.17,154.5 1038.83,154.5 1061.5,154.5C 1061.5,159.833 1061.5,165.167 1061.5,170.5C 1052.98,170.174 1044.65,170.507 1036.5,171.5C 1036.5,205.167 1036.5,238.833 1036.5,272.5C 1030.83,272.5 1025.17,272.5 1019.5,272.5C 1019.83,238.663 1019.5,204.996 1018.5,171.5C 1010.17,171.5 1001.83,171.5 993.5,171.5C 993.5,165.833 993.5,160.167 993.5,154.5 Z"
       id="path346" />
  </g>
  <g
     id="g352">
    <path
       style="opacity:1"
       fill="#4d4d4d"
       d="M 1139.5,171.5 C 1125.17,171.5 1110.83,171.5 1096.5,171.5C 1110.66,170.504 1124.99,170.171 1139.5,170.5C 1139.5,165.167 1139.5,159.833 1139.5,154.5C 1119.5,154.5 1099.5,154.5 1079.5,154.5C 1079.5,193.833 1079.5,233.167 1079.5,272.5C 1099.5,272.5 1119.5,272.5 1139.5,272.5C 1139.5,272.833 1139.5,273.167 1139.5,273.5C 1119.17,273.5 1098.83,273.5 1078.5,273.5C 1078.5,233.5 1078.5,193.5 1078.5,153.5C 1099.17,153.5 1119.83,153.5 1140.5,153.5C 1140.82,159.69 1140.49,165.69 1139.5,171.5 Z"
       id="path350" />
  </g>
  <g
     id="g356">
    <path
       style="opacity:1"
       fill="#111111"
       d="M 1096.5,171.5 C 1096.5,182.167 1096.5,192.833 1096.5,203.5C 1107.32,204.495 1118.32,204.828 1129.5,204.5C 1129.5,210.167 1129.5,215.833 1129.5,221.5C 1118.5,221.5 1107.5,221.5 1096.5,221.5C 1096.5,232.833 1096.5,244.167 1096.5,255.5C 1110.83,255.5 1125.17,255.5 1139.5,255.5C 1139.5,261.167 1139.5,266.833 1139.5,272.5C 1119.5,272.5 1099.5,272.5 1079.5,272.5C 1079.5,233.167 1079.5,193.833 1079.5,154.5C 1099.5,154.5 1119.5,154.5 1139.5,154.5C 1139.5,159.833 1139.5,165.167 1139.5,170.5C 1124.99,170.171 1110.66,170.504 1096.5,171.5 Z"
       id="path354" />
  </g>
  <g
     id="g360">
    <path
       style="opacity:1"
       fill="#505050"
       d="M 1204.5,154.5 C 1187.83,154.5 1171.17,154.5 1154.5,154.5C 1154.5,193.833 1154.5,233.167 1154.5,272.5C 1160.17,272.5 1165.83,272.5 1171.5,272.5C 1171.5,272.833 1171.5,273.167 1171.5,273.5C 1165.5,273.5 1159.5,273.5 1153.5,273.5C 1153.5,233.5 1153.5,193.5 1153.5,153.5C 1170.67,153.17 1187.67,153.503 1204.5,154.5 Z"
       id="path358" />
  </g>
  <g
     id="g364">
    <path
       style="opacity:1"
       fill="#131313"
       d="M 1204.5,154.5 C 1221.11,157.779 1230.45,167.779 1232.5,184.5C 1232.53,188.869 1232.2,193.202 1231.5,197.5C 1230.02,201.28 1228.35,204.947 1226.5,208.5C 1223.5,210.833 1220.83,213.5 1218.5,216.5C 1214.45,216.725 1212.62,218.725 1213,222.5C 1221.45,238.397 1229.61,254.397 1237.5,270.5C 1231.59,272.456 1225.25,273.123 1218.5,272.5C 1210.58,255.657 1201.91,239.323 1192.5,223.5C 1185.69,222.509 1178.69,222.175 1171.5,222.5C 1171.5,239.167 1171.5,255.833 1171.5,272.5C 1165.83,272.5 1160.17,272.5 1154.5,272.5C 1154.5,233.167 1154.5,193.833 1154.5,154.5C 1171.17,154.5 1187.83,154.5 1204.5,154.5 Z"
       id="path362" />
  </g>
  <g
     id="g368">
    <path
       style="opacity:1"
       fill="#282828"
       d="M 1270.5,153.5 C 1270.5,153.833 1270.5,154.167 1270.5,154.5C 1264.5,154.5 1258.5,154.5 1252.5,154.5C 1252.5,193.833 1252.5,233.167 1252.5,272.5C 1257.83,272.5 1263.17,272.5 1268.5,272.5C 1268.5,272.833 1268.5,273.167 1268.5,273.5C 1262.83,273.5 1257.17,273.5 1251.5,273.5C 1251.5,233.5 1251.5,193.5 1251.5,153.5C 1257.83,153.5 1264.17,153.5 1270.5,153.5 Z"
       id="path366" />
  </g>
  <g
     id="g372">
    <path
       style="opacity:1"
       fill="#131313"
       d="M 1270.5,154.5 C 1284.19,186.228 1298.19,217.895 1312.5,249.5C 1326.17,218.838 1339.83,188.172 1353.5,157.5C 1355.05,157.179 1355.71,156.179 1355.5,154.5C 1361.5,154.5 1367.5,154.5 1373.5,154.5C 1373.5,193.833 1373.5,233.167 1373.5,272.5C 1368.17,272.5 1362.83,272.5 1357.5,272.5C 1357.83,247.661 1357.5,222.994 1356.5,198.5C 1356.19,197.262 1355.69,197.262 1355,198.5C 1354.59,199.901 1354.09,201.234 1353.5,202.5C 1343.15,225.905 1332.82,249.239 1322.5,272.5C 1315.83,272.5 1309.17,272.5 1302.5,272.5C 1302.71,270.821 1302.05,269.821 1300.5,269.5C 1291.02,247.912 1281.68,226.245 1272.5,204.5C 1272.11,202.716 1271.44,201.05 1270.5,199.5C 1270.44,198.957 1270.11,198.624 1269.5,198.5C 1268.5,223.158 1268.17,247.824 1268.5,272.5C 1263.17,272.5 1257.83,272.5 1252.5,272.5C 1252.5,233.167 1252.5,193.833 1252.5,154.5C 1258.5,154.5 1264.5,154.5 1270.5,154.5 Z"
       id="path370" />
  </g>
  <g
     id="g376">
    <path
       style="opacity:1"
       fill="#2e2e2e"
       d="M 1356.5,273.5 C 1356.5,248.5 1356.5,223.5 1356.5,198.5C 1357.5,222.994 1357.83,247.661 1357.5,272.5C 1362.83,272.5 1368.17,272.5 1373.5,272.5C 1373.5,233.167 1373.5,193.833 1373.5,154.5C 1367.5,154.5 1361.5,154.5 1355.5,154.5C 1355.71,156.179 1355.05,157.179 1353.5,157.5C 1354.23,156.292 1354.57,154.959 1354.5,153.5C 1361.17,153.5 1367.83,153.5 1374.5,153.5C 1374.5,193.5 1374.5,233.5 1374.5,273.5C 1368.5,273.5 1362.5,273.5 1356.5,273.5 Z"
       id="path374" />
  </g>
  <g
     id="g380">
    <path
       style="opacity:1"
       fill="#141414"
       d="M 1486.5,153.5 C 1486.5,193.167 1486.5,232.833 1486.5,272.5C 1480.83,272.5 1475.17,272.5 1469.5,272.5C 1469.83,263.318 1469.49,254.318 1468.5,245.5C 1454.83,245.333 1441.16,245.5 1427.5,246C 1421.95,254.946 1416.28,263.78 1410.5,272.5C 1403.83,272.666 1397.16,272.5 1390.5,272C 1391.25,271.329 1391.59,270.496 1391.5,269.5C 1415.19,230.634 1439.52,192.134 1464.5,154C 1471.83,153.5 1479.16,153.334 1486.5,153.5 Z"
       id="path378" />
  </g>
  <g
     id="g384">
    <path
       style="opacity:1"
       fill="#a9b0ce"
       d="M 99.5,142.5 C 100.487,147.305 100.821,152.305 100.5,157.5C 92.1667,157.5 83.8333,157.5 75.5,157.5C 83.3159,156.508 91.3159,156.174 99.5,156.5C 99.5,151.833 99.5,147.167 99.5,142.5 Z"
       id="path382" />
  </g>
  <g
     id="g388">
    <path
       style="opacity:1"
       fill="#a5d8f2"
       d="M 314.5,142.5 C 314.833,142.5 315.167,142.5 315.5,142.5C 315.5,147.167 315.5,151.833 315.5,156.5C 323.352,156.175 331.018,156.508 338.5,157.5C 330.5,157.5 322.5,157.5 314.5,157.5C 314.5,152.5 314.5,147.5 314.5,142.5 Z"
       id="path386" />
  </g>
  <g
     id="g392">
    <path
       style="opacity:1"
       fill="#818181"
       d="M 463.5,155.5 C 462.486,156.674 461.153,157.34 459.5,157.5C 460.287,155.896 461.62,155.229 463.5,155.5 Z"
       id="path390" />
  </g>
  <g
     id="g396">
    <path
       style="opacity:1"
       fill="#727272"
       d="M 504.5,155.5 C 505.491,161.979 505.824,168.646 505.5,175.5C 503.447,175.598 501.78,174.931 500.5,173.5C 501.833,173.5 503.167,173.5 504.5,173.5C 504.5,167.5 504.5,161.5 504.5,155.5 Z"
       id="path394" />
  </g>
  <g
     id="g400">
    <path
       style="opacity:1"
       fill="#5c5c5c"
       d="M 671.5,154.5 C 673.065,156.509 674.065,158.843 674.5,161.5C 672.166,159.824 671.166,157.491 671.5,154.5 Z"
       id="path398" />
  </g>
  <g
     id="g404">
    <path
       style="opacity:1"
       fill="#717171"
       d="M 458.5,157.5 C 458.027,158.906 457.027,159.573 455.5,159.5C 455.973,158.094 456.973,157.427 458.5,157.5 Z"
       id="path402" />
  </g>
  <g
     id="g408">
    <path
       style="opacity:1"
       fill="#a5a5a5"
       d="M 860.5,159.5 C 863.833,160.833 866.167,163.167 867.5,166.5C 864.833,164.5 862.5,162.167 860.5,159.5 Z"
       id="path406" />
  </g>
  <g
     id="g412">
    <path
       style="opacity:1"
       fill="#b1b7d3"
       d="M 76.5,162.5 C 84.5,162.5 92.5,162.5 100.5,162.5C 100.5,167.5 100.5,172.5 100.5,177.5C 92.5,177.5 84.5,177.5 76.5,177.5C 83.9818,176.508 91.6484,176.175 99.5,176.5C 99.5,172.167 99.5,167.833 99.5,163.5C 91.6484,163.825 83.9818,163.492 76.5,162.5 Z"
       id="path410" />
  </g>
  <g
     id="g416">
    <path
       style="opacity:1"
       fill="#b0ddf4"
       d="M 339.5,162.5 C 331.684,163.492 323.684,163.826 315.5,163.5C 315.5,167.833 315.5,172.167 315.5,176.5C 323.352,176.175 331.018,176.508 338.5,177.5C 330.5,177.5 322.5,177.5 314.5,177.5C 314.5,172.5 314.5,167.5 314.5,162.5C 322.833,162.5 331.167,162.5 339.5,162.5 Z"
       id="path414" />
  </g>
  <g
     id="g420">
    <path
       style="opacity:1"
       fill="#595959"
       d="M 674.5,161.5 C 676.065,163.509 677.065,165.843 677.5,168.5C 675.166,166.824 674.166,164.491 674.5,161.5 Z"
       id="path418" />
  </g>
  <g
     id="g424">
    <path
       style="opacity:1"
       fill="#a2a2a2"
       d="M 486.5,170.5 C 489.518,170.335 492.518,170.502 495.5,171C 496.416,171.278 497.082,171.778 497.5,172.5C 493.64,172.192 489.974,171.525 486.5,170.5 Z"
       id="path422" />
  </g>
  <g
     id="g428">
    <path
       style="opacity:1"
       fill="#b0b0b0"
       d="M 1573.5,171.5 C 1564.69,171.039 1556.02,171.706 1547.5,173.5C 1548.84,172.207 1550.51,171.374 1552.5,171C 1559.68,170.179 1566.68,170.345 1573.5,171.5 Z"
       id="path426" />
  </g>
  <g
     id="g432">
    <path
       style="opacity:1"
       fill="#fcfcfc"
       d="M 583.5,171.5 C 585.806,171.993 588.139,172.326 590.5,172.5C 590.973,173.906 591.973,174.573 593.5,174.5C 602.114,178.781 608.781,185.114 613.5,193.5C 614.074,197.325 615.241,200.991 617,204.5C 617.665,211.195 617.498,217.862 616.5,224.5C 609.921,244.063 596.254,254.73 575.5,256.5C 555.676,255.43 542.009,245.763 534.5,227.5C 532.935,219.934 532.269,212.267 532.5,204.5C 532.328,203.508 532.662,202.842 533.5,202.5C 535.074,200.898 535.741,198.898 535.5,196.5C 539.776,186.558 546.776,179.225 556.5,174.5C 559.425,174.54 562.091,173.707 564.5,172C 570.825,171.5 577.158,171.334 583.5,171.5 Z"
       id="path430" />
  </g>
  <g
     id="g436">
    <path
       style="opacity:1"
       fill="#555555"
       d="M 677.5,168.5 C 679.065,170.509 680.065,172.843 680.5,175.5C 678.166,173.824 677.166,171.491 677.5,168.5 Z"
       id="path434" />
  </g>
  <g
     id="g440">
    <path
       style="opacity:1"
       fill="#707070"
       d="M 869.5,169.5 C 870.906,169.973 871.573,170.973 871.5,172.5C 870.094,172.027 869.427,171.027 869.5,169.5 Z"
       id="path438" />
  </g>
  <g
     id="g444">
    <path
       style="opacity:1"
       fill="#a5a5a5"
       d="M 474.5,171.5 C 471.855,173.31 468.855,174.31 465.5,174.5C 468.084,172.528 471.084,171.528 474.5,171.5 Z"
       id="path442" />
  </g>
  <g
     id="g448">
    <path
       style="opacity:1"
       fill="#fafafa"
       d="M 814.5,171.5 C 824.839,171.334 835.172,171.5 845.5,172C 855.281,176.063 858.781,183.23 856,193.5C 853.925,198.41 850.425,201.743 845.5,203.5C 835.167,203.5 824.833,203.5 814.5,203.5C 814.5,192.833 814.5,182.167 814.5,171.5 Z"
       id="path446" />
  </g>
  <g
     id="g452">
    <path
       style="opacity:1"
       fill="#c0c0c0"
       d="M 992.5,171.5 C 992.833,171.5 993.167,171.5 993.5,171.5C 1001.83,171.5 1010.17,171.5 1018.5,171.5C 1018.5,205.5 1018.5,239.5 1018.5,273.5C 1017.5,240.004 1017.17,206.337 1017.5,172.5C 1008.98,172.826 1000.65,172.493 992.5,171.5 Z"
       id="path450" />
  </g>
  <g
     id="g456">
    <path
       style="opacity:1"
       fill="#afafaf"
       d="M 1036.5,171.5 C 1045.17,171.5 1053.83,171.5 1062.5,171.5C 1054.35,172.493 1046.02,172.826 1037.5,172.5C 1037.83,206.337 1037.5,240.004 1036.5,273.5C 1036.5,273.167 1036.5,272.833 1036.5,272.5C 1036.5,238.833 1036.5,205.167 1036.5,171.5 Z"
       id="path454" />
  </g>
  <g
     id="g460">
    <path
       style="opacity:1"
       fill="#a8a8a8"
       d="M 1096.5,171.5 C 1110.83,171.5 1125.17,171.5 1139.5,171.5C 1125.68,172.496 1111.68,172.829 1097.5,172.5C 1097.5,182.833 1097.5,193.167 1097.5,203.5C 1097.17,203.5 1096.83,203.5 1096.5,203.5C 1096.5,192.833 1096.5,182.167 1096.5,171.5 Z"
       id="path458" />
  </g>
  <g
     id="g464">
    <path
       style="opacity:1"
       fill="#9f9f9f"
       d="M 1202.5,172.5 C 1192.5,172.5 1182.5,172.5 1172.5,172.5C 1172.5,182.833 1172.5,193.167 1172.5,203.5C 1182.5,203.5 1192.5,203.5 1202.5,203.5C 1192.35,204.494 1182.01,204.828 1171.5,204.5C 1171.5,193.5 1171.5,182.5 1171.5,171.5C 1182.01,171.172 1192.35,171.506 1202.5,172.5 Z"
       id="path462" />
  </g>
  <g
     id="g468">
    <path
       style="opacity:1"
       fill="#fcfcfc"
       d="M 1202.5,172.5 C 1209.69,174.36 1213.69,179.027 1214.5,186.5C 1214.64,195.244 1210.64,200.91 1202.5,203.5C 1192.5,203.5 1182.5,203.5 1172.5,203.5C 1172.5,193.167 1172.5,182.833 1172.5,172.5C 1182.5,172.5 1192.5,172.5 1202.5,172.5 Z"
       id="path466" />
  </g>
  <g
     id="g472">
    <path
       style="opacity:1"
       fill="#b2b2b2"
       d="M 583.5,171.5 C 577.158,171.334 570.825,171.5 564.5,172C 562.091,173.707 559.425,174.54 556.5,174.5C 558.493,172.837 560.826,171.67 563.5,171C 570.346,170.179 577.013,170.346 583.5,171.5 Z"
       id="path470" />
  </g>
  <g
     id="g476">
    <path
       style="opacity:1"
       fill="#7c7c7c"
       d="M 590.5,172.5 C 592.027,172.427 593.027,173.094 593.5,174.5C 591.973,174.573 590.973,173.906 590.5,172.5 Z"
       id="path474" />
  </g>
  <g
     id="g480">
    <path
       style="opacity:1"
       fill="#636363"
       d="M 871.5,172.5 C 873.585,174.684 874.585,177.351 874.5,180.5C 872.415,178.316 871.415,175.649 871.5,172.5 Z"
       id="path478" />
  </g>
  <g
     id="g484">
    <path
       style="opacity:1"
       fill="#656565"
       d="M 1486.5,153.5 C 1487.5,193.33 1487.83,233.33 1487.5,273.5C 1481.17,273.5 1474.83,273.5 1468.5,273.5C 1468.5,264.167 1468.5,254.833 1468.5,245.5C 1469.49,254.318 1469.83,263.318 1469.5,272.5C 1475.17,272.5 1480.83,272.5 1486.5,272.5C 1486.5,232.833 1486.5,193.167 1486.5,153.5 Z"
       id="path482" />
  </g>
  <g
     id="g488">
    <path
       style="opacity:1"
       fill="#c3c8dd"
       d="M 76.5,183.5 C 84.5,183.5 92.5,183.5 100.5,183.5C 100.819,188.363 100.486,193.03 99.5,197.5C 99.5,193.167 99.5,188.833 99.5,184.5C 91.6484,184.825 83.9818,184.492 76.5,183.5 Z"
       id="path486" />
  </g>
  <g
     id="g492">
    <path
       style="opacity:1"
       fill="#c0e4f6"
       d="M 337.5,183.5 C 330.352,184.492 323.019,184.825 315.5,184.5C 315.5,188.833 315.5,193.167 315.5,197.5C 315.167,197.5 314.833,197.5 314.5,197.5C 314.5,192.833 314.5,188.167 314.5,183.5C 322.167,183.5 329.833,183.5 337.5,183.5 Z"
       id="path490" />
  </g>
  <g
     id="g496">
    <path
       style="opacity:1"
       fill="#5d5d5d"
       d="M 1467.5,182.5 C 1467.56,181.957 1467.89,181.624 1468.5,181.5C 1469.83,196.661 1469.83,211.661 1468.5,226.5C 1468.83,211.657 1468.5,196.99 1467.5,182.5 Z"
       id="path494" />
  </g>
  <g
     id="g500">
    <path
       style="opacity:1"
       fill="#f9f9f9"
       d="M 1467.5,182.5 C 1468.5,196.99 1468.83,211.657 1468.5,226.5C 1458.99,226.827 1449.65,226.494 1440.5,225.5C 1449.25,210.998 1458.25,196.665 1467.5,182.5 Z"
       id="path498" />
  </g>
  <g
     id="g504">
    <path
       style="opacity:1"
       fill="#444444"
       d="M 1018.5,171.5 C 1019.5,204.996 1019.83,238.663 1019.5,272.5C 1025.17,272.5 1030.83,272.5 1036.5,272.5C 1036.5,272.833 1036.5,273.167 1036.5,273.5C 1030.5,273.5 1024.5,273.5 1018.5,273.5C 1018.5,239.5 1018.5,205.5 1018.5,171.5 Z"
       id="path502" />
  </g>
  <g
     id="g508">
    <path
       style="opacity:1"
       fill="#5d5d5d"
       d="M 684.5,184.5 C 686.065,186.509 687.065,188.843 687.5,191.5C 685.166,189.824 684.166,187.491 684.5,184.5 Z"
       id="path506" />
  </g>
  <g
     id="g512">
    <path
       style="opacity:1"
       fill="#6c6c6c"
       d="M 631.5,188.5 C 633.806,192.085 635.139,196.085 635.5,200.5C 633.589,196.767 632.256,192.767 631.5,188.5 Z"
       id="path510" />
  </g>
  <g
     id="g516">
    <path
       style="opacity:1"
       fill="#5a5a5a"
       d="M 687.5,191.5 C 689.065,193.509 690.065,195.843 690.5,198.5C 688.166,196.824 687.166,194.491 687.5,191.5 Z"
       id="path514" />
  </g>
  <g
     id="g520">
    <path
       style="opacity:1"
       fill="#757575"
       d="M 446.5,193.5 C 446.573,195.027 445.906,196.027 444.5,196.5C 444.427,194.973 445.094,193.973 446.5,193.5 Z"
       id="path518" />
  </g>
  <g
     id="g524">
    <path
       style="opacity:1"
       fill="#b9b9b9"
       d="M 1232.5,184.5 C 1233.65,188.311 1233.81,192.311 1233,196.5C 1232.62,197.056 1232.12,197.389 1231.5,197.5C 1232.2,193.202 1232.53,188.869 1232.5,184.5 Z"
       id="path522" />
  </g>
  <g
     id="g528">
    <path
       style="opacity:1"
       fill="#78c4ed"
       d="M 314.5,197.5 C 314.833,197.5 315.167,197.5 315.5,197.5C 323.507,197.334 331.507,197.5 339.5,198C 340.801,199.616 340.801,201.116 339.5,202.5C 339.67,201.178 339.337,200.011 338.5,199C 330.323,198.829 322.323,198.329 314.5,197.5 Z"
       id="path526" />
  </g>
  <g
     id="g532">
    <path
       style="opacity:1"
       fill="#767676"
       d="M 671.5,200.5 C 670.833,224.833 670.167,249.167 669.5,273.5C 669.167,248.491 669.5,223.491 670.5,198.5C 671.298,198.957 671.631,199.624 671.5,200.5 Z"
       id="path530" />
  </g>
  <g
     id="g536">
    <path
       style="opacity:1"
       fill="#919191"
       d="M 757.5,272.5 C 757.5,272.833 757.5,273.167 757.5,273.5C 756.833,249.167 756.167,224.833 755.5,200.5C 755.369,199.624 755.702,198.957 756.5,198.5C 757.5,223.158 757.833,247.824 757.5,272.5 Z"
       id="path534" />
  </g>
  <g
     id="g540">
    <path
       style="opacity:1"
       fill="#5e5e5e"
       d="M 1270.5,199.5 C 1269.5,223.994 1269.17,248.661 1269.5,273.5C 1269.17,273.5 1268.83,273.5 1268.5,273.5C 1268.5,273.167 1268.5,272.833 1268.5,272.5C 1268.17,247.824 1268.5,223.158 1269.5,198.5C 1270.11,198.624 1270.44,198.957 1270.5,199.5 Z"
       id="path538" />
  </g>
  <g
     id="g544">
    <path
       style="opacity:1"
       fill="#b1b1b1"
       d="M 1356.5,198.5 C 1356.5,223.5 1356.5,248.5 1356.5,273.5C 1356.16,249.649 1355.16,225.982 1353.5,202.5C 1354.09,201.234 1354.59,199.901 1355,198.5C 1355.69,197.262 1356.19,197.262 1356.5,198.5 Z"
       id="path542" />
  </g>
  <g
     id="g548">
    <path
       style="opacity:1"
       fill="#a4a4a4"
       d="M 535.5,196.5 C 535.741,198.898 535.074,200.898 533.5,202.5C 533.259,200.102 533.926,198.102 535.5,196.5 Z"
       id="path546" />
  </g>
  <g
     id="g552">
    <path
       style="opacity:1"
       fill="#575757"
       d="M 690.5,198.5 C 692.065,200.509 693.065,202.843 693.5,205.5C 691.166,203.824 690.166,201.491 690.5,198.5 Z"
       id="path550" />
  </g>
  <g
     id="g556">
    <path
       style="opacity:1"
       fill="#d9d9d9"
       d="M 1270.5,199.5 C 1271.44,201.05 1272.11,202.716 1272.5,204.5C 1271.88,204.389 1271.38,204.056 1271,203.5C 1270.83,227.004 1270.33,250.337 1269.5,273.5C 1269.17,248.661 1269.5,223.994 1270.5,199.5 Z"
       id="path554" />
  </g>
  <g
     id="g560">
    <path
       style="opacity:1"
       fill="#b0b6d2"
       d="M 76.5,203.5 C 84.5,203.5 92.5,203.5 100.5,203.5C 100.5,208.5 100.5,213.5 100.5,218.5C 92.5,218.5 84.5,218.5 76.5,218.5C 83.9818,217.508 91.6484,217.175 99.5,217.5C 99.5,213.167 99.5,208.833 99.5,204.5C 91.6484,204.825 83.9818,204.492 76.5,203.5 Z"
       id="path558" />
  </g>
  <g
     id="g564">
    <path
       style="opacity:1"
       fill="#9b9b9b"
       d="M 814.5,171.5 C 814.5,182.167 814.5,192.833 814.5,203.5C 824.833,203.5 835.167,203.5 845.5,203.5C 835.013,204.494 824.346,204.828 813.5,204.5C 813.172,193.321 813.505,182.321 814.5,171.5 Z"
       id="path562" />
  </g>
  <g
     id="g568">
    <path
       style="opacity:1"
       fill="#606060"
       d="M 1593.5,204.5 C 1581.17,204.5 1568.83,204.5 1556.5,204.5C 1556.5,210.167 1556.5,215.833 1556.5,221.5C 1563.02,221.177 1569.36,221.51 1575.5,222.5C 1568.83,222.5 1562.17,222.5 1555.5,222.5C 1555.5,216.167 1555.5,209.833 1555.5,203.5C 1568.34,203.171 1581.01,203.505 1593.5,204.5 Z"
       id="path566" />
  </g>
  <g
     id="g572">
    <path
       style="opacity:1"
       fill="#b2ddf4"
       d="M 338.5,203.5 C 331.018,204.492 323.352,204.825 315.5,204.5C 315.5,208.833 315.5,213.167 315.5,217.5C 323.352,217.175 331.018,217.508 338.5,218.5C 330.5,218.5 322.5,218.5 314.5,218.5C 314.5,213.5 314.5,208.5 314.5,203.5C 322.5,203.5 330.5,203.5 338.5,203.5 Z"
       id="path570" />
  </g>
  <g
     id="g576">
    <path
       style="opacity:1"
       fill="#858585"
       d="M 1270.5,153.5 C 1264.17,153.5 1257.83,153.5 1251.5,153.5C 1251.5,193.5 1251.5,233.5 1251.5,273.5C 1250.5,233.337 1250.17,193.003 1250.5,152.5C 1257.35,152.176 1264.02,152.509 1270.5,153.5 Z"
       id="path574" />
  </g>
  <g
     id="g580">
    <path
       style="opacity:1"
       fill="#5c5c5c"
       d="M 532.5,204.5 C 532.269,212.267 532.935,219.934 534.5,227.5C 533.883,227.389 533.383,227.056 533,226.5C 531.402,219.039 531.236,211.705 532.5,204.5 Z"
       id="path578" />
  </g>
  <g
     id="g584">
    <path
       style="opacity:1"
       fill="#949494"
       d="M 515.5,197.5 C 514.081,208.879 514.415,220.213 516.5,231.5C 515.037,228.797 514.204,225.797 514,222.5C 513.333,215.167 513.333,207.833 514,200.5C 514.232,199.263 514.732,198.263 515.5,197.5 Z"
       id="path582" />
  </g>
  <g
     id="g588">
    <path
       style="opacity:1"
       fill="#424242"
       d="M 1506.5,191.5 C 1506.12,195.586 1505.28,199.586 1504,203.5C 1503.5,209.157 1503.33,214.824 1503.5,220.5C 1501.59,210.553 1502.59,200.886 1506.5,191.5 Z"
       id="path586" />
  </g>
  <g
     id="g592">
    <path
       style="opacity:1"
       fill="#999999"
       d="M 613.5,193.5 C 615.656,196.437 617.156,199.771 618,203.5C 618.667,209.5 618.667,215.5 618,221.5C 617.768,222.737 617.268,223.737 616.5,224.5C 617.498,217.862 617.665,211.195 617,204.5C 615.241,200.991 614.074,197.325 613.5,193.5 Z"
       id="path590" />
  </g>
  <g
     id="g596">
    <path
       style="opacity:1"
       fill="#bcbcbc"
       d="M 636.5,206.5 C 637.163,208.641 637.497,210.975 637.5,213.5C 637.685,217.141 637.019,220.474 635.5,223.5C 636.292,217.87 636.625,212.203 636.5,206.5 Z"
       id="path594" />
  </g>
  <g
     id="g600">
    <path
       style="opacity:1"
       fill="#b3b3b3"
       d="M 1226.5,208.5 C 1224.83,212.167 1222.17,214.833 1218.5,216.5C 1220.83,213.5 1223.5,210.833 1226.5,208.5 Z"
       id="path598" />
  </g>
  <g
     id="g604">
    <path
       style="opacity:1"
       fill="#939393"
       d="M 443.5,199.5 C 442.642,207.132 442.309,214.799 442.5,222.5C 441.346,216.013 441.179,209.346 442,202.5C 442.232,201.263 442.732,200.263 443.5,199.5 Z"
       id="path602" />
  </g>
  <g
     id="g608">
    <path
       style="opacity:1"
       fill="#5f5f5f"
       d="M 697.5,214.5 C 699.065,216.509 700.065,218.843 700.5,221.5C 698.166,219.824 697.166,217.491 697.5,214.5 Z"
       id="path606" />
  </g>
  <g
     id="g612">
    <path
       style="opacity:1"
       fill="#6abaeb"
       d="M 314.5,218.5 C 322.5,218.5 330.5,218.5 338.5,218.5C 341.124,220.198 341.124,222.031 338.5,224C 330.841,224.5 323.174,224.666 315.5,224.5C 322.313,223.509 329.313,223.175 336.5,223.5C 336.5,222.167 336.5,220.833 336.5,219.5C 328.981,219.825 321.648,219.492 314.5,218.5 Z"
       id="path610" />
  </g>
  <g
     id="g616">
    <path
       style="opacity:1"
       fill="#a6a6a6"
       d="M 857.5,218.5 C 854.374,220.99 850.708,222.323 846.5,222.5C 849.939,220.796 853.605,219.462 857.5,218.5 Z"
       id="path614" />
  </g>
  <g
     id="g620">
    <path
       style="opacity:1"
       fill="#818181"
       d="M 1096.5,203.5 C 1096.83,203.5 1097.17,203.5 1097.5,203.5C 1108.5,203.5 1119.5,203.5 1130.5,203.5C 1130.5,209.833 1130.5,216.167 1130.5,222.5C 1119.5,222.5 1108.5,222.5 1097.5,222.5C 1097.5,233.167 1097.5,243.833 1097.5,254.5C 1111.83,254.5 1126.17,254.5 1140.5,254.5C 1140.82,261.022 1140.49,267.355 1139.5,273.5C 1139.5,273.167 1139.5,272.833 1139.5,272.5C 1139.5,266.833 1139.5,261.167 1139.5,255.5C 1125.17,255.5 1110.83,255.5 1096.5,255.5C 1096.5,244.167 1096.5,232.833 1096.5,221.5C 1107.5,221.5 1118.5,221.5 1129.5,221.5C 1129.5,215.833 1129.5,210.167 1129.5,204.5C 1118.32,204.828 1107.32,204.495 1096.5,203.5 Z"
       id="path618" />
  </g>
  <g
     id="g624">
    <path
       style="opacity:1"
       fill="#8e96be"
       d="M 76.5,223.5 C 84.5,223.5 92.5,223.5 100.5,223.5C 100.5,228.833 100.5,234.167 100.5,239.5C 92.1667,239.5 83.8333,239.5 75.5,239.5C 83.3159,238.508 91.3159,238.174 99.5,238.5C 99.5,233.833 99.5,229.167 99.5,224.5C 91.6484,224.825 83.9818,224.492 76.5,223.5 Z"
       id="path622" />
  </g>
  <g
     id="g628">
    <path
       style="opacity:1"
       fill="#777777"
       d="M 795.5,153.5 C 795.833,153.5 796.167,153.5 796.5,153.5C 796.5,193.167 796.5,232.833 796.5,272.5C 802.167,272.5 807.833,272.5 813.5,272.5C 813.5,255.833 813.5,239.167 813.5,222.5C 824.5,222.5 835.5,222.5 846.5,222.5C 836.013,223.494 825.346,223.828 814.5,223.5C 814.5,240.167 814.5,256.833 814.5,273.5C 808.167,273.5 801.833,273.5 795.5,273.5C 795.5,233.5 795.5,193.5 795.5,153.5 Z"
       id="path626" />
  </g>
  <g
     id="g632">
    <path
       style="opacity:1"
       fill="#909090"
       d="M 1192.5,223.5 C 1185.83,223.5 1179.17,223.5 1172.5,223.5C 1172.83,240.342 1172.5,257.008 1171.5,273.5C 1171.5,273.167 1171.5,272.833 1171.5,272.5C 1171.5,255.833 1171.5,239.167 1171.5,222.5C 1178.69,222.175 1185.69,222.509 1192.5,223.5 Z"
       id="path630" />
  </g>
  <g
     id="g636">
    <path
       style="opacity:1"
       fill="#5b5b5b"
       d="M 700.5,221.5 C 702.065,223.509 703.065,225.843 703.5,228.5C 701.166,226.824 700.166,224.491 700.5,221.5 Z"
       id="path634" />
  </g>
  <g
     id="g640">
    <path
       style="opacity:1"
       fill="#a8a8a8"
       d="M 681.5,223.5 C 683.065,225.509 684.065,227.843 684.5,230.5C 682.166,228.824 681.166,226.491 681.5,223.5 Z"
       id="path638" />
  </g>
  <g
     id="g644">
    <path
       style="opacity:1"
       fill="#878787"
       d="M 1440.5,225.5 C 1449.65,226.494 1458.99,226.827 1468.5,226.5C 1458.99,227.823 1449.33,227.823 1439.5,226.5C 1439.62,225.893 1439.96,225.56 1440.5,225.5 Z"
       id="path642" />
  </g>
  <g
     id="g648">
    <path
       style="opacity:1"
       fill="#585858"
       d="M 703.5,228.5 C 705.065,230.509 706.065,232.843 706.5,235.5C 704.166,233.824 703.166,231.491 703.5,228.5 Z"
       id="path646" />
  </g>
  <g
     id="g652">
    <path
       style="opacity:1"
       fill="#ababab"
       d="M 684.5,230.5 C 686.065,232.509 687.065,234.843 687.5,237.5C 685.166,235.824 684.166,233.491 684.5,230.5 Z"
       id="path650" />
  </g>
  <g
     id="g656">
    <path
       style="opacity:1"
       fill="#73c2ec"
       d="M 314.5,238.5 C 322.84,238.334 331.173,238.5 339.5,239C 340.801,240.616 340.801,242.116 339.5,243.5C 339.67,242.178 339.337,241.011 338.5,240C 330.323,239.829 322.323,239.329 314.5,238.5 Z"
       id="path654" />
  </g>
  <g
     id="g660">
    <path
       style="opacity:1"
       fill="#555555"
       d="M 706.5,235.5 C 708.065,237.509 709.065,239.843 709.5,242.5C 707.166,240.824 706.166,238.491 706.5,235.5 Z"
       id="path658" />
  </g>
  <g
     id="g664">
    <path
       style="opacity:1"
       fill="#b6bbd5"
       d="M 75.5,244.5 C 83.8333,244.5 92.1667,244.5 100.5,244.5C 100.5,249.5 100.5,254.5 100.5,259.5C 92.5,259.5 84.5,259.5 76.5,259.5C 83.9818,258.508 91.6484,258.175 99.5,258.5C 99.5,254.167 99.5,249.833 99.5,245.5C 91.3159,245.826 83.3159,245.492 75.5,244.5 Z"
       id="path662" />
  </g>
  <g
     id="g668">
    <path
       style="opacity:1"
       fill="#acdbf3"
       d="M 338.5,244.5 C 331.018,245.492 323.352,245.825 315.5,245.5C 315.5,249.833 315.5,254.167 315.5,258.5C 323.352,258.175 331.018,258.508 338.5,259.5C 330.5,259.5 322.5,259.5 314.5,259.5C 314.5,254.5 314.5,249.5 314.5,244.5C 322.5,244.5 330.5,244.5 338.5,244.5 Z"
       id="path666" />
  </g>
  <g
     id="g672">
    <path
       style="opacity:1"
       fill="#a0a0a0"
       d="M 736.5,243.5 C 736.834,246.491 735.834,248.824 733.5,250.5C 733.935,247.843 734.935,245.509 736.5,243.5 Z"
       id="path670" />
  </g>
  <g
     id="g676">
    <path
       style="opacity:1"
       fill="#757575"
       d="M 502.5,252.5 C 503.209,251.596 504.209,251.263 505.5,251.5C 506.126,258.584 505.459,265.25 503.5,271.5C 504.127,268.25 504.461,264.917 504.5,261.5C 504.483,258.087 503.816,255.087 502.5,252.5 Z"
       id="path674" />
  </g>
  <g
     id="g680">
    <path
       style="opacity:1"
       fill="#767676"
       d="M 922.5,253.5 C 924.403,253.796 926.07,254.463 927.5,255.5C 925.302,255.88 923.635,255.213 922.5,253.5 Z"
       id="path678" />
  </g>
  <g
     id="g684">
    <path
       style="opacity:1"
       fill="#5e5e5e"
       d="M 1574.5,254.5 C 1574.39,255.117 1574.06,255.617 1573.5,256C 1568.32,256.816 1563.32,256.65 1558.5,255.5C 1563.89,255.733 1569.23,255.4 1574.5,254.5 Z"
       id="path682" />
  </g>
  <g
     id="g688">
    <path
       style="opacity:1"
       fill="#a1a1a1"
       d="M 729.5,259.5 C 729.834,262.491 728.834,264.824 726.5,266.5C 726.935,263.843 727.935,261.509 729.5,259.5 Z"
       id="path686" />
  </g>
  <g
     id="g692">
    <path
       style="opacity:1"
       fill="#aaaaaa"
       d="M 697.5,260.5 C 699.065,262.509 700.065,264.843 700.5,267.5C 698.166,265.824 697.166,263.491 697.5,260.5 Z"
       id="path690" />
  </g>
  <g
     id="g696">
    <path
       style="opacity:1"
       fill="#aab0cf"
       d="M 75.5,264.5 C 83.8333,264.5 92.1667,264.5 100.5,264.5C 100.821,269.695 100.487,274.695 99.5,279.5C 99.5,274.833 99.5,270.167 99.5,265.5C 91.3159,265.826 83.3159,265.492 75.5,264.5 Z"
       id="path694" />
  </g>
  <g
     id="g700">
    <path
       style="opacity:1"
       fill="#b2def4"
       d="M 338.5,264.5 C 331.018,265.492 323.352,265.825 315.5,265.5C 315.5,269.833 315.5,274.167 315.5,278.5C 323.019,278.175 330.352,278.508 337.5,279.5C 329.833,279.5 322.167,279.5 314.5,279.5C 314.5,274.5 314.5,269.5 314.5,264.5C 322.5,264.5 330.5,264.5 338.5,264.5 Z"
       id="path698" />
  </g>
  <g
     id="g704">
    <path
       style="opacity:1"
       fill="#474747"
       d="M 724.5,271.5 C 724.672,272.492 724.338,273.158 723.5,273.5C 716.646,273.824 709.979,273.491 703.5,272.5C 710.588,272.795 717.588,272.462 724.5,271.5 Z"
       id="path702" />
  </g>
  <g
     id="g708">
    <path
       style="opacity:1"
       fill="#404040"
       d="M 1237.5,270.5 C 1238.4,271.209 1238.74,272.209 1238.5,273.5C 1231.65,273.824 1224.98,273.491 1218.5,272.5C 1225.25,273.123 1231.59,272.456 1237.5,270.5 Z"
       id="path706" />
  </g>
  <g
     id="g712">
    <path
       style="opacity:1"
       fill="#3f3f3f"
       d="M 1300.5,269.5 C 1302.05,269.821 1302.71,270.821 1302.5,272.5C 1309.17,272.5 1315.83,272.5 1322.5,272.5C 1315.69,273.491 1308.69,273.825 1301.5,273.5C 1301.57,272.041 1301.23,270.708 1300.5,269.5 Z"
       id="path710" />
  </g>
  <g
     id="g716">
    <path
       style="opacity:1"
       fill="#444444"
       d="M 1391.5,269.5 C 1391.59,270.496 1391.25,271.329 1390.5,272C 1397.16,272.5 1403.83,272.666 1410.5,272.5C 1403.35,273.655 1396.01,273.822 1388.5,273C 1389.16,271.482 1390.16,270.315 1391.5,269.5 Z"
       id="path714" />
  </g>
  <g
     id="g720">
    <path
       style="opacity:1"
       fill="#d2d2d2"
       d="M 700.5,267.5 C 701.687,269.072 702.687,270.739 703.5,272.5C 709.979,273.491 716.646,273.824 723.5,273.5C 716.679,274.655 709.679,274.821 702.5,274C 700.984,272.103 700.317,269.936 700.5,267.5 Z"
       id="path718" />
  </g>
  <g
     id="g724">
    <path
       style="opacity:1"
       fill="#4177b9"
       d="M 138.5,279.5 C 161.833,279.5 185.167,279.5 208.5,279.5C 217.652,280.494 226.985,280.827 236.5,280.5C 236.5,281.833 236.5,283.167 236.5,284.5C 226.985,284.173 217.652,284.506 208.5,285.5C 183.661,285.831 158.994,285.498 134.5,284.5C 135.167,284.5 135.833,284.5 136.5,284.5C 153.167,284.5 169.833,284.5 186.5,284.5C 186.5,283.167 186.5,281.833 186.5,280.5C 170.325,280.83 154.325,280.496 138.5,279.5 Z"
       id="path722" />
  </g>
  <g
     id="g728">
    <path
       style="opacity:1"
       fill="#3562a8"
       d="M 141.5,312.5 C 152.167,312.5 162.833,312.5 173.5,312.5C 174.568,313.434 175.901,313.768 177.5,313.5C 178.14,323.558 177.473,333.225 175.5,342.5C 175.167,342.5 174.833,342.5 174.5,342.5C 174.5,334.167 174.5,325.833 174.5,317.5C 169.305,317.179 164.305,317.513 159.5,318.5C 159.666,326.507 159.5,334.507 159,342.5C 156.765,343.98 154.932,343.647 153.5,341.5C 153.5,341.167 153.5,340.833 153.5,340.5C 154.493,331.682 154.827,322.682 154.5,313.5C 149.968,313.818 145.634,313.485 141.5,312.5 Z"
       id="path726" />
  </g>
  <g
     id="g732">
    <path
       style="opacity:1"
       fill="#376eb4"
       d="M 173.5,312.5 C 183.833,312.5 194.167,312.5 204.5,312.5C 209.305,313.487 214.305,313.821 219.5,313.5C 219.5,323.167 219.5,332.833 219.5,342.5C 217.872,343.853 216.538,343.519 215.5,341.5C 215.5,333.5 215.5,325.5 215.5,317.5C 210.167,317.5 204.833,317.5 199.5,317.5C 199.5,325.5 199.5,333.5 199.5,341.5C 198.415,343.582 196.915,343.916 195,342.5C 194.5,334.507 194.334,326.507 194.5,318.5C 189.695,317.513 184.695,317.179 179.5,317.5C 179.5,325.5 179.5,333.5 179.5,341.5C 178.462,343.519 177.128,343.853 175.5,342.5C 177.473,333.225 178.14,323.558 177.5,313.5C 175.901,313.768 174.568,313.434 173.5,312.5 Z"
       id="path730" />
  </g>
  <g
     id="g736">
    <path
       style="opacity:1"
       fill="#3b7ec2"
       d="M 204.5,312.5 C 214.833,312.5 225.167,312.5 235.5,312.5C 239.97,313.486 244.637,313.819 249.5,313.5C 249.5,314.833 249.5,316.167 249.5,317.5C 246.5,317.5 243.5,317.5 240.5,317.5C 240.5,325.5 240.5,333.5 240.5,341.5C 239.252,343.69 237.586,344.023 235.5,342.5C 235.5,334.167 235.5,325.833 235.5,317.5C 230.5,317.5 225.5,317.5 220.5,317.5C 220.5,325.5 220.5,333.5 220.5,341.5C 220.5,342.167 220.167,342.5 219.5,342.5C 219.5,332.833 219.5,323.167 219.5,313.5C 214.305,313.821 209.305,313.487 204.5,312.5 Z"
       id="path734" />
  </g>
  <g
     id="g740">
    <path
       style="opacity:1"
       fill="#4994d2"
       d="M 305.5,315.5 C 303.723,316.6 301.723,317.434 299.5,318C 293.843,318.499 288.176,318.666 282.5,318.5C 282.666,326.174 282.5,333.841 282,341.5C 280.444,343.635 278.611,343.968 276.5,342.5C 276.5,334.167 276.5,325.833 276.5,317.5C 271.5,317.5 266.5,317.5 261.5,317.5C 261.5,325.5 261.5,333.5 261.5,341.5C 259.802,344.124 257.969,344.124 256,341.5C 255.5,333.841 255.334,326.174 255.5,318.5C 253.735,317.539 251.735,317.205 249.5,317.5C 249.5,316.167 249.5,314.833 249.5,313.5C 244.637,313.819 239.97,313.486 235.5,312.5C 255.167,312.5 274.833,312.5 294.5,312.5C 297.812,313.737 301.145,313.404 304.5,311.5C 305.429,312.689 305.762,314.022 305.5,315.5 Z"
       id="path738" />
  </g>
  <g
     id="g744">
    <path
       style="opacity:1"
       fill="#889cc4"
       d="M 113.5,317.5 C 120.167,317.5 126.833,317.5 133.5,317.5C 133.5,325.5 133.5,333.5 133.5,341.5C 132.508,334.018 132.175,326.352 132.5,318.5C 125.978,318.823 119.645,318.49 113.5,317.5 Z"
       id="path742" />
  </g>
  <g
     id="g748">
    <path
       style="opacity:1"
       fill="#c4cfe4"
       d="M 139.5,318.5 C 143.97,317.514 148.637,317.181 153.5,317.5C 153.5,325.167 153.5,332.833 153.5,340.5C 153.5,340.833 153.5,341.167 153.5,341.5C 152.508,334.018 152.175,326.352 152.5,318.5C 148.167,318.5 143.833,318.5 139.5,318.5 Z"
       id="path746" />
  </g>
  <g
     id="g752">
    <path
       style="opacity:1"
       fill="#6da5d5"
       d="M 249.5,317.5 C 251.735,317.205 253.735,317.539 255.5,318.5C 250.833,318.5 246.167,318.5 241.5,318.5C 241.825,326.352 241.492,334.018 240.5,341.5C 240.5,333.5 240.5,325.5 240.5,317.5C 243.5,317.5 246.5,317.5 249.5,317.5 Z"
       id="path750" />
  </g>
  <g
     id="g756">
    <path
       style="opacity:1"
       fill="#a3bbd9"
       d="M 159.5,318.5 C 164.305,317.513 169.305,317.179 174.5,317.5C 174.5,325.833 174.5,334.167 174.5,342.5C 173.508,334.684 173.174,326.684 173.5,318.5C 168.833,318.5 164.167,318.5 159.5,318.5 Z"
       id="path754" />
  </g>
  <g
     id="g760">
    <path
       style="opacity:1"
       fill="#a1bbda"
       d="M 194.5,318.5 C 189.833,318.5 185.167,318.5 180.5,318.5C 180.825,326.352 180.492,334.018 179.5,341.5C 179.5,333.5 179.5,325.5 179.5,317.5C 184.695,317.179 189.695,317.513 194.5,318.5 Z"
       id="path758" />
  </g>
  <g
     id="g764">
    <path
       style="opacity:1"
       fill="#77a2d0"
       d="M 215.5,341.5 C 214.508,334.018 214.175,326.352 214.5,318.5C 209.833,318.5 205.167,318.5 200.5,318.5C 200.825,326.352 200.492,334.018 199.5,341.5C 199.5,333.5 199.5,325.5 199.5,317.5C 204.833,317.5 210.167,317.5 215.5,317.5C 215.5,325.5 215.5,333.5 215.5,341.5 Z"
       id="path762" />
  </g>
  <g
     id="g768">
    <path
       style="opacity:1"
       fill="#afcde6"
       d="M 235.5,342.5 C 234.508,334.684 234.174,326.684 234.5,318.5C 230.167,318.5 225.833,318.5 221.5,318.5C 221.825,326.352 221.492,334.018 220.5,341.5C 220.5,333.5 220.5,325.5 220.5,317.5C 225.5,317.5 230.5,317.5 235.5,317.5C 235.5,325.833 235.5,334.167 235.5,342.5 Z"
       id="path766" />
  </g>
  <g
     id="g772">
    <path
       style="opacity:1"
       fill="#c0ddf0"
       d="M 276.5,342.5 C 275.508,334.684 275.174,326.684 275.5,318.5C 271.167,318.5 266.833,318.5 262.5,318.5C 262.825,326.352 262.492,334.018 261.5,341.5C 261.5,333.5 261.5,325.5 261.5,317.5C 266.5,317.5 271.5,317.5 276.5,317.5C 276.5,325.833 276.5,334.167 276.5,342.5 Z"
       id="path770" />
  </g>
</svg>
